<mxfile host="app.diagrams.net" modified="2022-05-31T14:42:53.740Z" agent="5.0 (Macintosh; Intel Mac OS X 10_15_7) AppleWebKit/537.36 (KHTML, like Gecko) Chrome/102.0.5005.61 Safari/537.36" etag="7JSU2JjcHxoH1YNysjQv" version="18.1.3" type="github">
  <diagram id="qs12lx_DpQLUk4oAbed0" name="Page-1">
    <mxGraphModel dx="1868" dy="659" grid="1" gridSize="10" guides="1" tooltips="1" connect="1" arrows="1" fold="1" page="1" pageScale="1" pageWidth="850" pageHeight="1100" math="0" shadow="0">
      <root>
        <mxCell id="0" />
        <mxCell id="1" parent="0" />
        <mxCell id="uLEEBEtIoVZ8iIxkg-S8-10" value="" style="edgeStyle=orthogonalEdgeStyle;rounded=0;orthogonalLoop=1;jettySize=auto;html=1;fontSize=17;" edge="1" parent="1" source="uLEEBEtIoVZ8iIxkg-S8-1" target="uLEEBEtIoVZ8iIxkg-S8-9">
          <mxGeometry relative="1" as="geometry" />
        </mxCell>
        <mxCell id="uLEEBEtIoVZ8iIxkg-S8-1" value="&lt;font style=&quot;font-size: 17px;&quot;&gt;Block 1&lt;/font&gt;" style="rounded=1;whiteSpace=wrap;html=1;" vertex="1" parent="1">
          <mxGeometry x="-70" y="290" width="120" height="60" as="geometry" />
        </mxCell>
        <mxCell id="uLEEBEtIoVZ8iIxkg-S8-12" value="" style="edgeStyle=orthogonalEdgeStyle;rounded=0;orthogonalLoop=1;jettySize=auto;html=1;fontSize=17;" edge="1" parent="1" source="uLEEBEtIoVZ8iIxkg-S8-9" target="uLEEBEtIoVZ8iIxkg-S8-11">
          <mxGeometry relative="1" as="geometry" />
        </mxCell>
        <mxCell id="uLEEBEtIoVZ8iIxkg-S8-9" value="&lt;font style=&quot;font-size: 17px;&quot;&gt;Block 2&lt;/font&gt;" style="whiteSpace=wrap;html=1;rounded=1;" vertex="1" parent="1">
          <mxGeometry x="250" y="290" width="120" height="60" as="geometry" />
        </mxCell>
        <mxCell id="uLEEBEtIoVZ8iIxkg-S8-14" value="" style="edgeStyle=orthogonalEdgeStyle;rounded=0;orthogonalLoop=1;jettySize=auto;html=1;fontSize=17;" edge="1" parent="1" source="uLEEBEtIoVZ8iIxkg-S8-11" target="uLEEBEtIoVZ8iIxkg-S8-13">
          <mxGeometry relative="1" as="geometry" />
        </mxCell>
        <mxCell id="uLEEBEtIoVZ8iIxkg-S8-11" value="&lt;font style=&quot;font-size: 17px;&quot;&gt;Block 3&lt;/font&gt;" style="whiteSpace=wrap;html=1;rounded=1;" vertex="1" parent="1">
          <mxGeometry x="570" y="290" width="120" height="60" as="geometry" />
        </mxCell>
        <mxCell id="uLEEBEtIoVZ8iIxkg-S8-13" value="&lt;font style=&quot;font-size: 17px;&quot;&gt;Block 4&lt;/font&gt;" style="whiteSpace=wrap;html=1;rounded=1;" vertex="1" parent="1">
          <mxGeometry x="870" y="290" width="120" height="60" as="geometry" />
        </mxCell>
        <mxCell id="uLEEBEtIoVZ8iIxkg-S8-15" value="" style="verticalLabelPosition=bottom;verticalAlign=top;html=1;shape=mxgraph.basic.tick;fontSize=17;fillColor=#d5e8d4;strokeColor=#82b366;" vertex="1" parent="1">
          <mxGeometry x="450" y="270" width="60" height="40" as="geometry" />
        </mxCell>
        <mxCell id="uLEEBEtIoVZ8iIxkg-S8-16" value="" style="verticalLabelPosition=bottom;verticalAlign=top;html=1;shape=mxgraph.basic.tick;fontSize=17;fillColor=#d5e8d4;strokeColor=#82b366;" vertex="1" parent="1">
          <mxGeometry x="120" y="270" width="60" height="40" as="geometry" />
        </mxCell>
        <mxCell id="uLEEBEtIoVZ8iIxkg-S8-17" value="" style="verticalLabelPosition=bottom;verticalAlign=top;html=1;shape=mxgraph.basic.tick;fontSize=17;fillColor=#d5e8d4;strokeColor=#82b366;" vertex="1" parent="1">
          <mxGeometry x="760" y="270" width="60" height="40" as="geometry" />
        </mxCell>
        <mxCell id="uLEEBEtIoVZ8iIxkg-S8-18" value="&lt;font style=&quot;font-size: 15px;&quot;&gt;P1 只需要证明Block 1是valid&lt;/font&gt;" style="text;html=1;strokeColor=none;fillColor=none;align=center;verticalAlign=middle;whiteSpace=wrap;rounded=0;fontSize=17;" vertex="1" parent="1">
          <mxGeometry x="70" y="340" width="145" height="60" as="geometry" />
        </mxCell>
        <mxCell id="uLEEBEtIoVZ8iIxkg-S8-22" value="&lt;font style=&quot;font-size: 15px;&quot;&gt;P2&amp;nbsp;只需要证明Block 2和P1是valid（P1证明了block1）&lt;/font&gt;" style="text;html=1;strokeColor=none;fillColor=none;align=center;verticalAlign=middle;whiteSpace=wrap;rounded=0;fontSize=17;" vertex="1" parent="1">
          <mxGeometry x="375" y="335" width="210" height="70" as="geometry" />
        </mxCell>
        <mxCell id="uLEEBEtIoVZ8iIxkg-S8-23" value="&lt;font style=&quot;font-size: 15px;&quot;&gt;P3 只需要证明Block 3和P2是valid（P2证明了block2和P1，P1证明了block1）&lt;/font&gt;" style="text;html=1;strokeColor=none;fillColor=none;align=center;verticalAlign=middle;whiteSpace=wrap;rounded=0;fontSize=17;" vertex="1" parent="1">
          <mxGeometry x="685" y="350" width="210" height="70" as="geometry" />
        </mxCell>
        <mxCell id="uLEEBEtIoVZ8iIxkg-S8-25" value="&lt;font style=&quot;font-size: 17px;&quot;&gt;每个证明只需要证明当前的block和上一个proof是正确的，最终会递归证明所有block的history&lt;/font&gt;" style="text;html=1;strokeColor=none;fillColor=none;align=center;verticalAlign=middle;whiteSpace=wrap;rounded=0;fontSize=15;" vertex="1" parent="1">
          <mxGeometry x="55" y="220" width="740" height="10" as="geometry" />
        </mxCell>
      </root>
    </mxGraphModel>
  </diagram>
</mxfile>
